<?xml version="1.0" encoding="UTF-8"?>
<svg width="30" height="30" version="1.1" viewBox="0 0 700 700" xmlns="http://www.w3.org/2000/svg" xmlns:xlink="http://www.w3.org/1999/xlink">
 
 <g>
  <path d="m560.79 446.25c-1.8945 0-3.7383-0.61328-5.25-1.75l-189.79-141.84c-4.543-3.4102-10.07-5.25-15.75-5.25s-11.207 1.8398-15.75 5.25l-189.79 141.84c-1.5117 1.1367-3.3555 1.75-5.25 1.75-6.4805 0-12.734-2.3984-17.555-6.7305-4.8203-4.3359-7.8672-10.305-8.5508-16.75-0.68359-6.4453 1.043-12.918 4.8438-18.168l197.05-273.35c8.0586-11.324 21.102-18.047 35-18.047s26.941 6.7227 35 18.047l197.23 273c3.9492 5.2656 5.7773 11.824 5.1211 18.375-0.66016 6.5508-3.7539 12.617-8.6719 16.992-4.9219 4.375-11.305 6.7422-17.887 6.6328z"/>
  <path d="m350 280c9.4648 0 18.676 3.0703 26.25 8.75l186.99 140c2.3203-0.6875 4.25-2.3008 5.3359-4.4609 1.3516-2.832 1.0859-6.1719-0.69922-8.75l-197.23-273.7c-4.7852-6.6328-12.469-10.562-20.648-10.562s-15.863 3.9297-20.648 10.562l-197.23 273.09c-1.7852 2.5781-2.0508 5.918-0.69922 8.75 1.0859 2.1602 3.0156 3.7773 5.3359 4.4609l186.99-139.39c7.5742-5.6797 16.785-8.75 26.25-8.75z"/>
 </g>
</svg>
