<?xml version="1.0" encoding="UTF-8"?>
<svg width="40px" version="1.1" viewBox="0 0 700 500" fill="aliceblue" xmlns="http://www.w3.org/2000/svg" xmlns:xlink="http://www.w3.org/1999/xlink">
 <g>
  <path d="m351.68 110.32h-115.36c-30.801 0-56 25.199-56 56v115.36c0 30.801 25.199 56 56 56h115.36c30.801 0 56-25.199 56-56v-115.36c0-30.801-25.199-56-56-56zm33.602 171.36c0 18.48-15.121 33.602-33.602 33.602h-115.36c-18.48 0-33.602-15.121-33.602-33.602v-115.36c0-18.48 15.121-33.602 33.602-33.602h115.36c18.48 0 33.602 15.121 33.602 33.602z"/>
  <path d="m463.68 427.28h-115.36c-18.48 0-33.602-15.121-33.602-33.602v-22.398h-22.398v22.398c0 30.801 25.199 56 56 56h115.36c30.801 0 56-25.199 56-56v-115.36c0-30.801-25.199-56-56-56h-22.398v22.398h22.398c18.48 0 33.602 15.121 33.602 33.602v115.36c0 18.48-15.121 33.602-33.602 33.602z"/>
 </g>
</svg>
