<svg width="37" height="41" viewBox="0 0 37 41" fill="none" xmlns="http://www.w3.org/2000/svg">
<path id="css3" d="M34.121 36.5976L37.4916 0H0L0.0440476 0.474917L3.36524 36.6028L3.39343 36.9034L18.604 41H18.8436L34.0893 36.9L34.1175 36.5993L34.121 36.5976ZM18.7784 7.99329H29.6722L29.3445 11.6833L18.5969 16.3163L18.7766 17.15H28.8618L27.7007 30.0496L18.7396 32.4583L9.78209 30.053L9.21829 23.8757H12.906L13.202 27.007L13.2301 27.3111L18.6656 28.712H18.9L24.2755 27.2633L24.302 26.9609L24.8094 21.1765L24.8499 20.705H8.90995L8.57519 16.9928L19.691 12.3786L19.5149 11.5415H8.09771L7.77176 7.98817H18.766L18.7784 7.99329Z" fill="#333333"/>
</svg>
