<svg width="25" height="38" viewBox="0 0 25 38" fill="none" xmlns="http://www.w3.org/2000/svg">
<g id="figma">
<path id="first-row" d="M5.9375 0.666504C4.44566 0.666504 3.01492 1.24597 1.96002 2.27742C0.905132 3.30887 0.3125 4.70781 0.3125 6.1665C0.3125 7.6252 0.905132 9.02414 1.96002 10.0556C3.01492 11.087 4.44566 11.6665 5.9375 11.6665H19.0625C20.5543 11.6665 21.9851 11.087 23.04 10.0556C24.0949 9.02414 24.6875 7.6252 24.6875 6.1665C24.6875 4.70781 24.0949 3.30887 23.04 2.27742C21.9851 1.24597 20.5543 0.666504 19.0625 0.666504H5.9375Z" fill="#333333"/>
<path id="second-r-second" d="M19.0625 13.5C17.5707 13.5 16.1399 14.0795 15.085 15.1109C14.0301 16.1424 13.4375 17.5413 13.4375 19C13.4375 20.4587 14.0301 21.8576 15.085 22.8891C16.1399 23.9205 17.5707 24.5 19.0625 24.5C20.5543 24.5 21.9851 23.9205 23.04 22.8891C24.0949 21.8576 24.6875 20.4587 24.6875 19C24.6875 17.5413 24.0949 16.1424 23.04 15.1109C21.9851 14.0795 20.5543 13.5 19.0625 13.5Z" fill="#333333"/>
<path id="second-r-first" d="M0.3125 19C0.3125 17.5413 0.905132 16.1424 1.96002 15.1109C3.01492 14.0795 4.44566 13.5 5.9375 13.5H11.5625V24.5H5.9375C4.44566 24.5 3.01492 23.9205 1.96002 22.8891C0.905132 21.8576 0.3125 20.4587 0.3125 19Z" fill="#333333"/>
<path id="last-row" d="M5.9375 26.333C4.82498 26.333 3.73745 26.6556 2.81242 27.2599C1.88739 27.8643 1.16642 28.7233 0.74068 29.7282C0.314937 30.7332 0.203543 31.8391 0.420585 32.906C0.637627 33.9729 1.17336 34.9529 1.96003 35.7221C2.7467 36.4913 3.74898 37.0151 4.84012 37.2273C5.93126 37.4395 7.06226 37.3306 8.0901 36.9143C9.11793 36.4981 9.99643 35.7931 10.6145 34.8886C11.2326 33.9842 11.5625 32.9208 11.5625 31.833V26.333H5.9375Z" fill="#333333"/>
</g>
</svg>
