<svg width="45" height="44" viewBox="0 0 45 44" fill="none" xmlns="http://www.w3.org/2000/svg">
<path d="M0.849411 20.0394L20.4975 0.830603C20.7666 0.567433 21.086 0.358668 21.4375 0.216234C21.7891 0.0737995 22.1659 0.000488281 22.5464 0.000488281C22.927 0.000488281 23.3038 0.0737995 23.6554 0.216234C24.0069 0.358668 24.3263 0.567433 24.5953 0.830603L28.6735 4.8181L23.4985 9.8781C22.8881 9.67435 22.2315 9.64248 21.6036 9.78611C20.9756 9.92975 20.4016 10.2431 19.947 10.6904C19.4925 11.1378 19.1757 11.701 19.0328 12.3159C18.89 12.9309 18.9268 13.5727 19.1391 14.1681L14.1525 19.0466C13.4148 18.7926 12.6106 18.7918 11.8723 19.0444C11.134 19.297 10.5058 19.7879 10.0909 20.4362C9.67603 21.0845 9.49933 21.8516 9.58989 22.6113C9.68044 23.3709 10.0329 24.0777 10.5891 24.6154C11.1522 25.1693 11.8945 25.5149 12.6893 25.5932C13.4841 25.6714 14.282 25.4774 14.9468 25.0443C15.6115 24.6112 16.1018 23.9659 16.334 23.2186C16.5662 22.4713 16.5258 21.6683 16.2197 20.9469L20.8688 16.3984V28.3691C20.1621 28.7111 19.5967 29.2796 19.2667 29.9799C18.9368 30.6801 18.8622 31.4697 19.0555 32.2172C19.2488 32.9646 19.6983 33.6247 20.329 34.0875C20.9597 34.5502 21.7335 34.7876 22.5215 34.76C23.3095 34.7325 24.0641 34.4418 24.6594 33.9362C25.2547 33.4307 25.6549 32.7409 25.7932 31.9819C25.9314 31.2229 25.7995 30.4404 25.4193 29.765C25.0391 29.0896 24.4336 28.562 23.7038 28.2701V16.1894C24.1248 16.0207 24.5076 15.7721 24.83 15.4581C25.1523 15.1441 25.4079 14.7708 25.5821 14.3597C25.7562 13.9487 25.8454 13.508 25.8445 13.063C25.8436 12.6181 25.7527 12.1778 25.5769 11.7674L30.676 6.77885L44.1478 19.9514C44.417 20.2144 44.6305 20.5267 44.7762 20.8705C44.9218 21.2142 44.9968 21.5826 44.9968 21.9547C44.9968 22.3268 44.9218 22.6953 44.7762 23.039C44.6305 23.3827 44.417 23.6951 44.1478 23.9581L24.4997 43.1696C24.2307 43.4328 23.9113 43.6415 23.5597 43.784C23.2082 43.9264 22.8314 43.9997 22.4508 43.9997C22.0703 43.9997 21.6935 43.9264 21.3419 43.784C20.9903 43.6415 20.6709 43.4328 20.4019 43.1696L0.846596 24.0489C0.303707 23.5173 -0.0012207 22.7967 -0.0012207 22.0455C-0.0012207 21.2942 0.303707 20.5737 0.846596 20.0421" fill="#333333"/>
</svg>
