<svg width="24" height="24" viewBox="0 0 24 24" fill="none" xmlns="http://www.w3.org/2000/svg">
<path id="github" fill-rule="evenodd" clip-rule="evenodd" d="M12 0C18.63 0 24 5.37 24 12C24 17.31 20.565 21.795 15.795 23.385C15.195 23.49 14.97 23.13 14.97 22.815C14.97 22.53 14.985 21.585 14.985 20.58C18 21.135 18.78 19.845 19.02 19.17C19.155 18.825 19.74 17.76 20.25 17.475C20.67 17.25 21.27 16.695 20.265 16.68C19.32 16.665 18.645 17.55 18.42 17.91C17.34 19.725 15.615 19.215 14.925 18.9C14.82 18.12 14.505 17.595 14.16 17.295C16.83 16.995 19.62 15.96 19.62 11.37C19.62 10.065 19.155 8.985 18.39 8.145C18.51 7.845 18.93 6.615 18.27 4.965C18.27 4.965 17.265 4.65 14.97 6.195C14.01 5.925 12.99 5.79 11.97 5.79C10.95 5.79 9.93 5.925 8.97 6.195C6.675 4.635 5.67 4.965 5.67 4.965C5.01 6.615 5.43 7.845 5.55 8.145C4.785 8.985 4.32 10.05 4.32 11.37C4.32 15.975 7.125 16.995 9.795 17.295C9.36 17.67 8.985 18.39 8.985 19.515C8.985 21.12 9 22.41 9 22.815C9 23.13 8.775 23.505 8.175 23.385C5.79282 22.5807 3.72282 21.0497 2.25634 19.0074C0.78985 16.965 0.000717163 14.5143 0 12C0 5.37 5.37 0 12 0Z" fill="#333333"/>
</svg>
