<svg width="43" height="41" viewBox="0 0 43 41" fill="none" xmlns="http://www.w3.org/2000/svg">
<path id="js" fill-rule="evenodd" clip-rule="evenodd" d="M0 0H43V41H0V0ZM32.8717 34.3717C30.8776 34.3717 29.7506 33.3808 28.8852 32.0312L25.6011 33.8506C26.7872 36.0851 29.2113 37.79 32.9649 37.79C36.8026 37.79 39.6603 35.8904 39.6603 32.4208C39.6603 29.204 37.7217 27.7741 34.2889 26.3681L33.2784 25.9564C31.5441 25.2389 30.7934 24.7725 30.7934 23.616C30.7934 22.6815 31.5459 21.9657 32.7284 21.9657C33.8876 21.9657 34.6347 22.4321 35.3281 23.616L38.4743 21.6907C37.143 19.4579 35.2976 18.6055 32.7284 18.6055C29.12 18.6055 26.8105 20.8058 26.8105 23.6963C26.8105 26.8311 28.7455 28.3156 31.6623 29.4995L32.6728 29.9129C34.5165 30.6817 35.6147 31.1497 35.6147 32.4703C35.6147 33.5739 34.5451 34.3717 32.8717 34.3717ZM17.2125 34.346C15.824 34.346 15.2453 33.4406 14.611 32.3644L11.3215 34.264C12.2747 36.1876 14.1488 37.7832 17.3827 37.7832C20.9643 37.7832 23.4171 35.9673 23.4171 31.9783V18.8241H19.3769V31.927C19.3769 33.8523 18.5384 34.346 17.2107 34.346H17.2125Z" fill="black" fill-opacity="0.72"/>
</svg>
