<svg width="45" height="41" viewBox="0 0 45 41" fill="none" xmlns="http://www.w3.org/2000/svg">
<g id="react">
<path id="around" d="M45 20.43C45 17.515 41.2669 14.7522 35.5425 13.0398C36.8644 7.33633 36.2775 2.797 33.69 1.34316C33.063 0.999817 32.3534 0.826992 31.635 0.842663V2.841C32.0569 2.841 32.3963 2.9235 32.6813 3.07566C33.9281 3.776 34.47 6.438 34.0481 9.8645C33.9469 10.7078 33.7819 11.5952 33.5794 12.5008C31.6624 12.0492 29.7169 11.7227 27.7556 11.5237C26.5872 9.94753 25.3125 8.44942 23.94 7.03933C26.9306 4.32233 29.7375 2.83366 31.6462 2.83366V0.833496C29.1225 0.833496 25.8206 2.59166 22.4812 5.6405C19.1437 2.61183 15.84 0.870163 13.3181 0.870163V2.8685C15.2175 2.8685 18.0338 4.34983 21.0244 7.0485C19.74 8.3685 18.4556 9.8645 17.235 11.5237C15.2697 11.7205 13.3207 12.0501 11.4019 12.51C11.19 11.6135 11.0344 10.7445 10.9237 9.91033C10.4925 6.482 11.025 3.82 12.2644 3.11233C12.5381 2.951 12.8963 2.87766 13.3181 2.87766V0.879329C12.5494 0.879329 11.85 1.04066 11.2463 1.37983C8.66813 2.83366 8.09063 7.362 9.42 13.049C3.71438 14.7723 0 17.5242 0 20.43C0 23.345 3.73313 26.1078 9.4575 27.8183C8.13562 33.5237 8.7225 38.063 11.31 39.515C11.9062 39.856 12.6038 40.0173 13.3725 40.0173C15.8962 40.0173 19.1981 38.2592 22.5375 35.2103C25.875 38.2408 29.1769 39.9807 31.7006 39.9807C32.4246 39.9956 33.1396 39.8223 33.7725 39.4783C36.3506 38.0263 36.9281 33.498 35.5988 27.811C41.2856 26.0987 45 23.3358 45 20.43ZM33.0562 14.4478C32.7 15.6466 32.287 16.8285 31.8187 17.9898C31.0522 16.5319 30.2105 15.1129 29.2969 13.7383C30.6 13.9272 31.8563 14.16 33.0581 14.4478H33.0562ZM28.8563 23.9995C28.1419 25.2095 27.4069 26.359 26.6456 27.426C23.8936 27.6632 21.1257 27.6662 18.3731 27.4352C16.7943 25.23 15.4135 22.8954 14.2463 20.4575C15.4117 18.0139 16.7866 15.671 18.3563 13.4542C21.1076 13.2165 23.8749 13.2128 26.6269 13.4432C27.3881 14.5102 28.1325 15.6505 28.8469 16.8532C29.5444 18.0265 30.1781 19.2182 30.7556 20.4208C30.1717 21.6381 29.5381 22.8319 28.8563 23.9995ZM31.8187 22.8335C32.3137 24.0343 32.7375 25.237 33.0844 26.403C31.8844 26.6908 30.6169 26.9328 29.3062 27.1198C30.2161 25.7328 31.0546 24.3022 31.8187 22.8335ZM22.5188 32.4035C21.6656 31.5418 20.8125 30.583 19.9688 29.5325C20.7937 29.5692 21.6375 29.5967 22.4906 29.5967C23.3531 29.5967 24.2062 29.5783 25.0406 29.5325C24.2156 30.583 23.3625 31.5418 22.5188 32.4035ZM15.6937 27.1198C14.4295 26.9407 13.1744 26.7046 11.9325 26.4122C12.2719 25.2553 12.6938 24.0618 13.17 22.8702C13.5469 23.5852 13.9425 24.3038 14.3737 25.0225C14.805 25.7393 15.2437 26.4397 15.6937 27.1198ZM22.4719 8.4565C23.325 9.31816 24.1781 10.277 25.0219 11.3275C24.1969 11.2908 23.3531 11.2633 22.5 11.2633C21.6375 11.2633 20.7844 11.2817 19.95 11.3275C20.775 10.277 21.6281 9.31816 22.4719 8.4565ZM15.6844 13.7402C14.7748 15.1242 13.9362 16.5517 13.1719 18.0173C12.6904 16.8485 12.268 15.6572 11.9062 14.4478C13.1062 14.1692 14.3737 13.9272 15.6844 13.7402ZM7.38375 24.9675C4.13625 23.6145 2.03625 21.838 2.03625 20.43C2.03625 19.022 4.13625 17.2363 7.38375 15.8925C8.17125 15.5607 9.03375 15.2637 9.92438 14.9868C10.4475 16.7432 11.1356 18.5728 11.9869 20.4483C11.1832 22.2123 10.5035 24.0279 9.9525 25.8823C9.08147 25.6186 8.22419 25.3133 7.38375 24.9675ZM12.3188 37.7825C11.0719 37.0858 10.53 34.4202 10.9519 30.9955C11.0531 30.1522 11.2181 29.263 11.4206 28.3573C13.2169 28.7882 15.18 29.12 17.2444 29.3363C18.4128 30.9124 19.6875 32.4105 21.06 33.8207C18.0694 36.5377 15.2625 38.0263 13.3538 38.0263C12.9936 38.0302 12.6381 37.9471 12.3188 37.7843V37.7825ZM34.0762 30.9497C34.5075 34.3762 33.975 37.04 32.7356 37.7477C32.4619 37.909 32.1037 37.9805 31.6819 37.9805C29.7825 37.9805 26.9662 36.501 23.9756 33.8005C25.26 32.4842 26.5444 30.9863 27.765 29.3272C29.7303 29.1303 31.6793 28.8008 33.5981 28.3408C33.81 29.2465 33.9731 30.1155 34.0762 30.9497ZM37.6069 24.9675C36.8194 25.2993 35.9569 25.5963 35.0662 25.8732C34.5056 24.0092 33.8165 22.1846 33.0037 20.4117C33.8475 18.5472 34.5244 16.7267 35.0381 14.9777C35.9475 15.2545 36.8081 15.5607 37.6162 15.8925C40.8638 17.2455 42.9637 19.022 42.9637 20.43C42.9544 21.838 40.8544 23.6237 37.6069 24.9675Z" fill="black" fill-opacity="0.72"/>
<path id="dot" d="M22.4904 24.5292C23.6023 24.5292 24.6686 24.0973 25.4549 23.3286C26.2411 22.5598 26.6828 21.5171 26.6828 20.4299C26.6828 19.3427 26.2411 18.3 25.4549 17.5312C24.6686 16.7625 23.6023 16.3306 22.4904 16.3306C21.3784 16.3306 20.3121 16.7625 19.5258 17.5312C18.7396 18.3 18.2979 19.3427 18.2979 20.4299C18.2979 21.5171 18.7396 22.5598 19.5258 23.3286C20.3121 24.0973 21.3784 24.5292 22.4904 24.5292Z" fill="black" fill-opacity="0.72"/>
</g>
</svg>
