<svg width="516" height="516" viewBox="0 0 516 516" fill="none" xmlns="http://www.w3.org/2000/svg">
<path id="sun" d="M257.599 0C251.411 0 246.4 5.0156 246.4 11.199V111.999C246.4 118.187 251.416 123.198 257.599 123.198C263.786 123.198 268.798 118.182 268.798 111.999V11.199C268.798 5.0115 263.782 0 257.599 0V0ZM83.299 72.102C80.4318 72.102 77.6115 73.2387 75.424 75.4262C71.049 79.8012 71.049 86.9772 75.424 91.3522L146.651 162.579C151.026 166.954 158.202 166.954 162.577 162.579C166.952 158.204 166.952 151.028 162.577 146.653L91.35 75.4262C89.1625 73.2387 86.1664 72.102 83.2992 72.102H83.299ZM431.899 72.102C429.032 72.102 426.036 73.2387 423.848 75.4262L352.621 146.653C348.246 151.028 348.246 158.204 352.621 162.579C356.996 166.954 364.172 166.954 368.547 162.579L439.774 91.3522C444.149 86.9772 444.149 79.8012 439.774 75.4262C437.587 73.2387 434.766 72.102 431.899 72.102H431.899ZM257.599 184.802C217.392 184.802 184.798 217.396 184.798 257.603C184.798 297.81 217.392 330.404 257.599 330.404C297.806 330.404 330.4 297.81 330.4 257.603C330.4 217.396 297.806 184.802 257.599 184.802ZM11.199 246.4C5.0115 246.4 0 251.416 0 257.599C0 263.786 5.0156 268.798 11.199 268.798H111.999C118.186 268.798 123.198 263.782 123.198 257.599C123.198 251.411 118.182 246.4 111.999 246.4H11.199ZM403.199 246.4C397.012 246.4 392 251.416 392 257.599C392 263.786 397.016 268.798 403.199 268.798H503.999C510.187 268.798 515.198 263.782 515.198 257.599C515.198 251.411 510.182 246.4 503.999 246.4H403.199ZM154.699 349.3C151.832 349.3 148.836 350.437 146.648 352.624L75.4212 423.851C71.0462 428.226 71.0462 435.402 75.4212 439.777C79.7962 444.152 86.9722 444.152 91.3472 439.777L162.574 368.55C166.949 364.175 166.949 356.999 162.574 352.624C160.387 350.437 157.566 349.3 154.699 349.3H154.699ZM360.499 349.3C357.632 349.3 354.811 350.437 352.624 352.624C348.249 356.999 348.249 364.175 352.624 368.55L423.851 439.777C428.226 444.152 435.402 444.152 439.777 439.777C444.152 435.402 444.152 428.226 439.777 423.851L368.55 352.624C366.362 350.437 363.366 349.3 360.499 349.3H360.499ZM257.599 391.999C251.411 391.999 246.4 397.015 246.4 403.198V503.998C246.4 510.186 251.416 515.197 257.599 515.197C263.786 515.197 268.798 510.181 268.798 503.998V403.198C268.798 397.01 263.782 391.999 257.599 391.999V391.999Z" fill="black"/>
</svg>
